# xmcd CD database file
#
# Track frame offsets:
#	150
#	31002
#	74253
#	108769
#	141685
#	174077
#	196166
#	214435
#	240207
#	266857
#
# Disc length: 4499 seconds
#
# Revision: 0
# Processed by: cddbd v1.5.2PL0 Copyright (c) Steve Scherf et al.
# Submitted via: CDex 2.00
#
DISCID=8a11910a
DTITLE=Gordon Beck - Jubilation CD3
DYEAR=2018
DGENRE=Jazz
TTITLE0=Box You Fight Him He Cry Out
TTITLE1=Thoughts
TTITLE2=Good Times Sometimes
TTITLE3=Here Comes the Mallet Man
TTITLE4=November Song
TTITLE5=Romantic, isn't it?
TTITLE6=Lady V
TTITLE7=The Quick Brown Fox
TTITLE8=Untitled 1
TTITLE9=Untitiled 2
EXTD=YEAR: 2018
EXTT0=
EXTT1=
EXTT2=
EXTT3=
EXTT4=
EXTT5=
EXTT6=
EXTT7=
EXTT8=
EXTT9=
PLAYORDER=
